<?xml version="1.0" encoding="UTF-8"?>
<!DOCTYPE svg PUBLIC "-//W3C//DTD SVG 1.1//EN" "http://www.w3.org/Graphics/SVG/1.1/DTD/svg11.dtd">
<!-- Creator: CorelDRAW 2019 (64-Bit) -->
<svg xmlns="http://www.w3.org/2000/svg" xml:space="preserve" width="16.1216mm" height="16.1454mm" version="1.1" style="shape-rendering:geometricPrecision; text-rendering:geometricPrecision; image-rendering:optimizeQuality; fill-rule:evenodd; clip-rule:evenodd"
viewBox="0 0 121.81 121.99"
 xmlns:xlink="http://www.w3.org/1999/xlink"
 xmlns:xodm="http://www.corel.com/coreldraw/odm/2003">
 <defs>
  <style type="text/css">
   <![CDATA[
    .fil0 {fill:#42C5F3}
    .fil3 {fill:#FE641A}
    .fil1 {fill:#FE641A}
    .fil2 {fill:white}
   ]]>
  </style>
 </defs>
 <g id="Layer_x0020_1">
  <metadata id="CorelCorpID_0Corel-Layer"/>
  <g id="_2381843851792">
   <path class="fil0" d="M33.94 16.49c0.62,-0.04 1.33,0.09 2.09,0.26 5.53,1.05 10.07,4.86 12.15,9.94l0.07 0.16 0.03 0.07c1.2,3.02 1.5,6.42 0.69,9.81l-0.03 0.1c-0.05,0.19 -0.1,0.38 -0.15,0.57l-0.01 0.03 -0 0.02c-0.05,0.18 -0.1,0.35 -0.16,0.52 -1.23,3.89 -3.64,6.81 -6.62,8.72 -2.6,1.72 -5.72,2.72 -9.08,2.72 -2.5,0 -4.87,-0.56 -6.99,-1.55 -3.21,-1.44 -6.01,-3.96 -7.79,-7.59 -0.28,-0.57 -0.56,-1.25 -0.8,-1.97 -0.16,-0.47 -0.31,-0.96 -0.43,-1.45l-0.02 -0.08 -0.02 -0.08 -0.01 -0.02 -0 -0c-0.11,-0.46 -0.2,-0.92 -0.26,-1.36 -0.18,-1.25 -0.3,-2.16 -0.15,-2.82 0.09,-3.38 1.2,-6.5 3.03,-9.07 0.19,-0.41 0.51,-0.77 0.9,-1.16 0.57,-0.67 1.2,-1.3 1.87,-1.87 0.42,-0.41 0.83,-0.76 1.27,-0.98 2.66,-1.85 5.9,-2.94 9.39,-2.94 0.34,0 0.67,0.01 1.01,0.03zm-21.18 -9.91c-1.41,1.12 -5.06,4.79 -6.2,6.21 1.17,1.34 2.55,2.57 3.87,3.89 2.23,2.24 0.45,3.23 -0.62,5.67 -0.5,1.16 -1.53,5.04 -2.26,5.65 -1.14,0.96 -5.79,0.37 -7.56,0.56l0.01 8.83c6.43,0.42 7.43,-1.2 8.46,2.48 0.43,1.54 0.81,2.57 1.49,3.95 0.63,1.28 1.63,2.48 1.45,4.04 -0.86,1.67 -3.78,3.54 -4.83,5.2 1.06,1.08 5.41,5.7 6.47,6.26 0.79,-1.13 2.78,-2.89 3.88,-4 1.98,-2 3.18,-0.26 5.32,0.71 7.34,3.31 6.21,-0.11 6.21,9.85l8.94 -0.02c-0,-10.18 -1.03,-6.44 6.14,-9.78 5.46,-2.55 3.18,-2.69 9.47,3.19 0.95,-0.5 5.73,-5.27 6.23,-6.23 -5.77,-6.13 -5.72,-4.2 -3.28,-9.28 3.48,-7.25 -0.53,-6.32 9.79,-6.32l0.12 -8.95c-9.74,0 -6.57,1.25 -9.78,-6.02 -0.88,-2 -2.73,-3.54 -0.93,-5.38 1.07,-1.09 3.07,-3.25 4.14,-4.01 -0.43,-0.84 -5.32,-5.71 -6.29,-6.43 -1.71,1.11 -3.54,3.95 -5.17,4.79 -1.32,0.4 -4.32,-1.94 -7.99,-2.95 -3.63,-1 -2.13,-1.98 -2.49,-8.4l-8.84 -0.08c-0.16,1.75 0.38,6.22 -0.43,7.42 -0.62,0.93 -4.39,1.81 -5.75,2.42 -6,2.71 -2.99,2.46 -9.59,-3.26z"/>
   <path class="fil1" d="M72.48 90.58c-0.97,-9.66 6.16,-17.15 14.62,-18.08 9.57,-1.05 17.26,6.19 18.16,14.55 1.04,9.72 -6.16,17.35 -14.68,18.23 -9.66,1 -17.25,-6.24 -18.1,-14.7zm11.83 24.47l0.4 0.83 -0.05 5.8 8.7 0c-0.2,-10.71 -0.27,-6.35 7.04,-10.11 3.56,-1.83 3.15,-1.76 5.68,0.79 1.33,1.34 2.98,3.19 4.35,4.28l3.88 -3.73c1.78,-1.79 1.79,-1.67 2.39,-2.37 -1.09,-1.31 -4.04,-4.11 -5.32,-5.38 -2.21,-2.19 -0.5,-3.24 0.6,-5.67 0.54,-1.2 1.51,-5.03 2.26,-5.64 1.18,-0.96 5.74,-0.35 7.56,-0.56l-0.01 -8.83c-11.05,-0.75 -5.79,1.98 -9.95,-6.43 -0.63,-1.27 -1.62,-2.5 -1.46,-4.04 0.81,-1.57 3.69,-3.49 4.79,-5.17 -0.72,-0.97 -5.59,-5.85 -6.43,-6.29 -0.8,1.13 -2.77,2.9 -3.87,4.01 -1.98,1.99 -3.18,0.25 -5.33,-0.72 -7.37,-3.3 -6.21,0.08 -6.21,-9.85l-8.94 0.02c0,10.18 1,6.46 -6.13,9.79 -5.4,2.53 -3.22,2.68 -9.48,-3.19 -0.92,0.49 -5.75,5.31 -6.23,6.23 5.52,5.89 5.8,4.14 3.28,9.3 -3.53,7.22 0.52,6.3 -9.8,6.3l-0.12 8.95c9.76,0 6.57,-1.25 9.78,6.02 0.89,2.02 2.72,3.52 0.94,5.38 -1.03,1.08 -3.09,3.26 -4.14,4.01 0.45,0.86 5.31,5.71 6.29,6.43 1.69,-1.1 3.58,-3.97 5.17,-4.79 1.67,-0.18 3.71,1.39 5.33,2.06 3.26,1.34 4.32,0.71 5.01,2.59z"/>
   <path class="fil0" d="M13.16 77.51c5.47,-2.06 8.35,6.47 2.88,8.48 -5.3,1.95 -9.05,-6.16 -2.88,-8.48zm-7.23 4.09c0,3.11 1.59,5.24 3.34,6.73 1.61,1.37 5.12,2.6 7.55,1.44 0.62,2.33 7.02,8.92 9.44,10.97 4.25,3.6 7.19,5.71 12.69,8.27 1.31,0.61 6.25,2.62 7.58,2.66 1.27,0.03 1.85,-0.75 1.85,-2.02 0,-1.94 -1.79,-2.01 -3.44,-2.55 -1.77,-0.58 -2.97,-1.07 -4.45,-1.81 -6.55,-3.22 -9.02,-4.8 -14.63,-10.41 -1.34,-1.34 -5.04,-5.26 -5.51,-7.01 2.17,-3.24 2.45,-2.52 2.45,-7.08 0,-2.26 -1.43,-4.07 -2.65,-5.25 -5.66,-5.44 -14.23,-0.53 -14.23,6.06z"/>
   <path class="fil1" d="M105.96 35.87c5.42,-2.03 8.45,6.44 2.88,8.47 -5.36,1.96 -8.98,-6.19 -2.88,-8.47zm-4.5 -1.9c-2.17,3.24 -2.45,2.52 -2.45,7.08 0,2.32 1.52,4.2 2.78,5.38 3.33,3.1 8.2,2.76 11.57,-0.28 2.98,-2.7 3.89,-8.64 -0.82,-12.64 -1.61,-1.37 -5.12,-2.6 -7.55,-1.44 -0.8,-3 -9.59,-11.53 -12.74,-13.66 -4.09,-2.77 -3.56,-2.63 -8.31,-5.03 -1.52,-0.77 -3,-1.4 -4.57,-1.97 -1.7,-0.62 -3.92,-1.63 -5.02,-1.02 -1.75,0.97 -1.29,3.03 0.44,3.69 1.65,0.64 3.2,1.01 4.84,1.69 2.24,0.92 6.83,3.28 8.67,4.67 3.93,2.96 3.21,2.1 7.22,6.12 1.45,1.45 5.41,5.5 5.92,7.42z"/>
   <path class="fil2" d="M105.96 35.87c-6.1,2.29 -2.48,10.44 2.88,8.47 5.57,-2.04 2.53,-10.51 -2.88,-8.47z"/>
   <path class="fil2" d="M13.16 77.51c-6.17,2.32 -2.43,10.43 2.88,8.48 5.48,-2.01 2.6,-10.54 -2.88,-8.48z"/>
   <path class="fil3" d="M93.36 121.68l-8.7 0 0.05 -5.8 -0.4 -0.83 0.08 6.75c1.31,0.2 8.01,0.32 8.97,-0.12z"/>
  </g>
 </g>
</svg>
