<?xml version="1.0" encoding="UTF-8"?>
<!DOCTYPE svg PUBLIC "-//W3C//DTD SVG 1.1//EN" "http://www.w3.org/Graphics/SVG/1.1/DTD/svg11.dtd">
<!-- Creator: CorelDRAW 2019 (64-Bit) -->
<svg xmlns="http://www.w3.org/2000/svg" xml:space="preserve" width="16.1216mm" height="16.1216mm" version="1.1" style="shape-rendering:geometricPrecision; text-rendering:geometricPrecision; image-rendering:optimizeQuality; fill-rule:evenodd; clip-rule:evenodd"
viewBox="0 0 157.81 157.81"
 xmlns:xlink="http://www.w3.org/1999/xlink"
 xmlns:xodm="http://www.corel.com/coreldraw/odm/2003">
 <defs>
  <style type="text/css">
   <![CDATA[
    .fil1 {fill:#42C5F3}
    .fil0 {fill:#FE641A}
    .fil2 {fill:white}
   ]]>
  </style>
 </defs>
 <g id="Layer_x0020_1">
  <metadata id="CorelCorpID_0Corel-Layer"/>
  <g id="_2382036115984">
   <path class="fil0" d="M14.49 12.02c-1.81,0 -11.16,1.21 -12.56,2.23 -1.84,1.35 -1.93,2.76 -1.93,4.55 0,2.4 4.67,5.87 6.4,7.47 0.92,0.85 1.54,1.72 2.54,2.39 -0.44,1.91 -1.85,9.53 -1.85,11.4 0,2.64 2.11,4.62 4.62,4.62 2.29,0 10.42,-5.29 11.47,-5.35 0.83,-0.05 9.29,5.35 11.34,5.35 6.64,0 4.5,-7.23 3.92,-10.7 -1.09,-6.55 -2.04,-3.98 4.02,-10.03 1.37,-1.37 6.64,-5.23 2.63,-9.26 -2.04,-2.05 -10.34,-1.89 -12.65,-2.77 -1.34,-0.51 -2.93,-5.33 -3.57,-6.6 -2.03,-4.06 -2.47,-5.34 -6.37,-5.34 -1.25,0 -2.55,1.09 -3.1,1.83 -0.6,0.82 -1.23,2.12 -1.73,3.2 -0.6,1.3 -0.91,2.13 -1.54,3.39 -0.57,1.13 -1.37,2.42 -1.64,3.6zm64.55 27.43c0.97,0.28 3.1,1.41 4.06,1.98 3.55,2.12 9.91,6.22 11.91,-0.39 0.42,-1.37 -1.09,-8.46 -1.47,-10.71 -0.25,-1.5 -0.31,-1.33 0.52,-2.22 0.49,-0.53 1.02,-0.97 1.57,-1.52 4.09,-4.08 8.58,-6.88 5.74,-11.14 -1.79,-2.69 -8.15,-2.63 -12.37,-3.35 -1.5,-0.25 -1.24,-0.14 -1.8,-1.28l-4.18 -8.45c-0.82,-1.45 -1.95,-2.36 -4.1,-2.36 -3.87,0 -4.68,3.48 -6.07,6.27 -3.42,6.85 -0.78,5.52 -11.84,6.97 -2.08,0.27 -3.4,0.63 -4.44,2.03 -4.55,6.15 8.26,10.75 7.8,14.84 -0.31,2.77 -1.92,8.34 -1.54,10.63 0.32,1.88 1.17,2.73 2.7,3.47 4.08,1.99 8.7,-3.82 13.51,-4.75zm32.24 -21.27c0,3.59 8.49,9.04 8.94,10.79 0.58,2.25 -5.46,15.72 2.77,15.72 2.76,0 10.21,-5.22 11.46,-5.35 1.38,-0.14 8.97,5.35 11.66,5.35 2.27,0 4.62,-2.01 4.62,-4.31 0,-2.21 -0.45,-3.91 -0.79,-5.99 -0.35,-2.11 -0.62,-3.86 -1.06,-5.72l3.77 -3.32c2.82,-2.49 5.16,-4.45 5.16,-7.78 0,-4.41 -6.61,-4.53 -9.81,-4.98 -1.4,-0.2 -3.04,-0.56 -4.68,-0.56l-4.79 -10.01c-1.32,-1.94 -2.64,-2.01 -4.37,-2.02l-0.08 0c-4.78,0 -6.25,10.59 -8.49,11.85 -3.14,1.78 -14.32,-0.65 -14.32,6.33z"/>
   <path class="fil1" d="M78.92 157.81l16.06 0c2.77,-0.11 5.18,-0.33 6.61,-0.74 5.52,-1.58 9.67,-6.54 11.27,-12.16 2.01,-7.08 -0.63,-17.94 -4.18,-23.96 -2.42,-4.1 -4.6,-6.43 -8.1,-9.37 -2.08,2.72 -13.42,12.96 -16.16,16.3 -1.5,1.83 -4.21,3.97 -4.97,5.4l-0.6 -0.02c-1.57,-1.16 -20.98,-20.66 -21.56,-21.67 -2.06,1.55 -4.23,3.85 -5.76,5.9 -8.86,11.87 -11.92,34.01 4.77,39.54 1.19,0.39 2.73,0.65 4.47,0.8l18.17 0z"/>
   <path class="fil0" d="M78.96 113.27c3.3,0.01 6.52,-0.64 9.24,-1.64 1.25,-0.46 2.5,-1.09 3.59,-1.65 1.39,-0.71 2.22,-1.5 3.44,-2.04l2.79 -2.51c0.72,-0.72 1.78,-1.98 2.41,-2.83 11.76,-15.75 3.66,-37.95 -15.3,-42.56 -1.69,-0.41 -3.01,-0.33 -5,-0.69 -1.24,-0.43 -7.04,0.49 -9.14,1.18 -19.62,6.41 -25.48,30.48 -11.28,44.66l2.68 2.68c0.04,0.04 0.12,0.13 0.17,0.19 0.69,0.09 5.16,2.84 7.07,3.53 3.12,1.12 5.73,1.46 9.32,1.68z"/>
   <path class="fil2" d="M57.28 111.58c0.58,1.01 19.99,20.51 21.56,21.67l0.6 0.02c0.77,-1.43 3.47,-3.57 4.97,-5.4 2.74,-3.34 14.08,-13.58 16.16,-16.3 -0.63,-0.66 -1.72,-1.39 -2.5,-1.92 -0.95,-0.64 -2.04,-1.14 -2.84,-1.72 -1.22,0.54 -2.05,1.34 -3.44,2.04 -1.09,0.56 -2.34,1.19 -3.59,1.65 -2.72,1 -5.95,1.65 -9.24,1.64 -3.59,-0.22 -6.2,-0.56 -9.32,-1.68 -1.91,-0.68 -6.38,-3.44 -7.07,-3.53 -1.19,0.53 -4.53,2.62 -5.29,3.52z"/>
  </g>
 </g>
</svg>
