<?xml version="1.0" encoding="UTF-8"?>
<!DOCTYPE svg PUBLIC "-//W3C//DTD SVG 1.1//EN" "http://www.w3.org/Graphics/SVG/1.1/DTD/svg11.dtd">
<!-- Creator: CorelDRAW 2019 (64-Bit) -->
<svg xmlns="http://www.w3.org/2000/svg" xml:space="preserve" width="16.1216mm" height="16.1248mm" version="1.1" style="shape-rendering:geometricPrecision; text-rendering:geometricPrecision; image-rendering:optimizeQuality; fill-rule:evenodd; clip-rule:evenodd"
viewBox="0 0 224.04 224.08"
 xmlns:xlink="http://www.w3.org/1999/xlink"
 xmlns:xodm="http://www.corel.com/coreldraw/odm/2003">
 <defs>
  <style type="text/css">
   <![CDATA[
    .fil0 {fill:#42C5F3}
    .fil2 {fill:#F44D4D}
    .fil1 {fill:#FE641A}
   ]]>
  </style>
 </defs>
 <g id="Layer_x0020_1">
  <metadata id="CorelCorpID_0Corel-Layer"/>
  <g id="_2381651716976">
   <path class="fil0" d="M224.04 69.28c-3.11,-2.96 -24.79,-23.97 -25.09,-26.22 -0.55,-4.15 4.39,-3.95 7.28,-5.1 10.51,-4.18 12.24,-18.13 5.04,-25.17 -7.38,-7.22 -20.38,-5.46 -24.88,4.39 -1.52,3.33 -0.94,8.12 -5.03,7.96 -2.58,-0.1 -11.45,-9.99 -13.63,-12.17 -4.37,-4.37 -8.78,-8.57 -12.93,-12.96l-19.77 19.6c1.16,1.23 2.67,1.77 4.01,2.72 1.43,1 2.57,2.24 3.63,3.45 2.24,2.55 3.89,5.37 4.88,9.25 4.09,16.09 -10.12,30.83 -26.47,27.44 -6.97,-1.45 -13.82,-7.27 -15.59,-12.86 -2.7,1.37 -16.84,16.52 -20.16,19.7 4,4.37 8.45,8.53 12.75,12.83 2.08,2.08 12.07,11.13 12.35,13.54 0.73,6.24 -8.15,1.51 -14.46,11.17 -8.51,13.02 7.13,30.02 21.22,21.22 9.67,-6.03 4.86,-15.21 11.19,-14.45 2.47,0.29 23.09,21.89 26.35,25.1 7.5,-7.77 15.47,-15.75 23.31,-23.33 7.01,-6.77 6.8,5.39 10.33,9.42 9.42,10.77 26.18,4.75 27.24,-8.53 0.58,-7.29 -3.82,-12.83 -8.39,-15.05 -3.15,-1.53 -7.14,-1.13 -8.06,-3.74 -1.26,-3.58 5.87,-9.03 9.76,-12.98l15.11 -15.22z"/>
   <path class="fil1" d="M54.22 100.45c-2.09,2.07 -3.81,3.81 -5.89,5.89 -9.38,9.39 -8.08,1.29 -10.85,-4.14 -6.1,-11.98 -23.94,-10.77 -28.29,1.79 -2.62,7.56 0.74,13.39 4.77,17.01 2.58,2.32 4.46,2.38 8.29,3.48 4.28,1.23 2.99,4.91 1.1,6.86 -5.37,5.55 -19.73,19.09 -23.35,23.46l19.62 19.55 1.62 -2.22c5.26,-9.02 16.05,-13.12 26.36,-9.81 15.15,4.86 20.15,24.3 9.99,35.8 -2.29,2.59 -3.19,3.24 -5.95,4.88l-1.99 1.5 19.58 19.58c5.56,-4.33 17.37,-18.1 24,-23.82 6.66,-5.76 5.68,5.72 10.56,10.53 4.23,4.17 10.23,6.89 17.64,3.55 12.77,-5.76 11.46,-24.35 -1.57,-28.57 -3.02,-0.98 -7.53,-1.2 -6.08,-5.46 0.5,-1.48 4.39,-5 5.61,-6.21 2.08,-2.08 3.82,-3.8 5.89,-5.89 4.88,-4.93 10.48,-10.54 15.31,-15.33 1.85,-1.83 4.66,-3.85 5.61,-5.98 -0.42,-1.92 -14.77,-15.55 -15.8,-16.05 -1.93,1.79 -1.84,2.39 -3.69,3.92 -11.34,9.4 -26.35,9.11 -36.33,-1.09 -10.05,-10.28 -10.6,-25.03 -0.92,-36.62 1.24,-1.48 2.07,-1.67 3.73,-3.39 -0.77,-1.78 -6.13,-6.58 -7.81,-8.26 -1.38,-1.38 -6.39,-7.23 -8.2,-7.49 -1.3,0.54 -2.11,1.69 -3.4,2.99 -7.51,7.52 -12.64,12.66 -19.57,19.56z"/>
   <path class="fil2" d="M77.19 77.9c1.81,0.27 6.82,6.12 8.2,7.49 1.68,1.68 7.04,6.48 7.81,8.26 -1.66,1.72 -2.49,1.91 -3.73,3.39 -9.68,11.6 -9.14,26.34 0.92,36.62 9.98,10.2 24.98,10.49 36.33,1.09 1.84,-1.53 1.76,-2.13 3.69,-3.92 1.03,0.5 15.37,14.12 15.8,16.05 1.41,-0.79 2.44,-1.92 3.38,-3.17 -4.16,-4.02 -16.8,-17.27 -19.83,-19.66 -4.29,6.13 -5.86,10.06 -15.23,12.64 -8.79,2.43 -16.56,-1.18 -21.18,-5.52 -5.28,-4.97 -7.8,-13.6 -6.24,-20.93 0.83,-3.86 2.78,-7.3 4.6,-9.55 1.01,-1.25 2.17,-2.38 3.58,-3.49l4 -2.63c0.08,-0.05 0.22,-0.18 0.28,-0.22 0.06,-0.05 0.19,-0.14 0.28,-0.23l-19.52 -19.64c-1.21,1.02 -2.35,1.98 -3.14,3.42z"/>
  </g>
 </g>
</svg>
