<?xml version="1.0" encoding="UTF-8"?>
<!DOCTYPE svg PUBLIC "-//W3C//DTD SVG 1.1//EN" "http://www.w3.org/Graphics/SVG/1.1/DTD/svg11.dtd">
<!-- Creator: CorelDRAW 2019 (64-Bit) -->
<svg xmlns="http://www.w3.org/2000/svg" xml:space="preserve" width="16.121mm" height="16.1106mm" version="1.1" style="shape-rendering:geometricPrecision; text-rendering:geometricPrecision; image-rendering:optimizeQuality; fill-rule:evenodd; clip-rule:evenodd"
viewBox="0 0 386.02 385.77"
 xmlns:xlink="http://www.w3.org/1999/xlink"
 xmlns:xodm="http://www.corel.com/coreldraw/odm/2003">
 <defs>
  <style type="text/css">
   <![CDATA[
    .fil0 {fill:#42C5F3}
    .fil1 {fill:#FE641A}
   ]]>
  </style>
 </defs>
 <g id="Layer_x0020_1">
  <metadata id="CorelCorpID_0Corel-Layer"/>
  <g id="_2382126577504">
   <path class="fil0" d="M126.37 14.97c-12.1,0 -35.32,9.22 -46.41,15.95 -2.31,1.4 -3.89,2.4 -6.13,3.84 -1.28,0.82 -1.95,1.13 -3.12,1.87 -1.54,0.98 -1.85,1.44 -3.37,2.45l-6.37 -3.6c-9.66,-4.83 -6.66,-4.57 -17.94,6.72 -10.91,10.91 -14.01,8.73 -5.33,23.21 1,1.66 0.42,0.84 1.38,1.95l-8.16 12.62c-2.41,3.98 -5.11,9.27 -7.04,13.74 -2.82,6.52 -8.9,24.35 -8.9,32.67 -5.33,0.45 -9.63,3.71 -14.97,4.16l0 31.59c5.33,0.45 9.63,3.71 14.97,4.16 0,8.32 6.09,26.15 8.9,32.67 4.64,10.75 9.15,17.32 15.21,26.36l-6.65 13.3c0,2.83 20.7,21.62 20.78,21.62 2.61,0 7.54,-2.88 10.55,-4.41 0.16,-0.08 1.63,-0.86 1.63,-0.86 1.67,-1 0.85,-0.42 1.95,-1.38 1.33,0.89 1.42,1.17 2.86,2.13 1.49,0.99 2.18,1.26 3.62,2.2 2.68,1.72 4.02,2.51 6.82,3.99 0.82,-9.93 4.8,-4.01 1.66,-15.78 -2.4,-8.99 0.73,-6.34 -8.32,-13.32 -24.56,-18.94 -40.73,-54.47 -40.73,-86.47 0,-15.66 4.11,-32.3 9.95,-45.75 2.99,-6.9 6.17,-12.07 10.17,-18.1 10.54,-15.89 28.41,-30.83 46.03,-38.77 6.69,-3.01 13.26,-5.59 21.06,-7.21 19.93,-4.14 36.39,-4.52 56.35,1.2 23.59,6.76 44.26,20.67 58.95,39.99 2.89,3.8 1.85,3.67 4.52,4.63 -3.57,-7.44 5.2,-15.92 4.31,-20.09 -2.78,-13 -6.61,-13.19 -4.17,-29.77 -4.1,0.06 -5.29,1.28 -8.18,2.74 -1.38,0.7 -1.93,0.93 -3.35,1.64 -0.16,0.08 -1.63,0.86 -1.63,0.86 -1.67,1 -0.85,0.42 -1.95,1.38 -1.33,-0.89 -1.42,-1.17 -2.86,-2.12 -14.52,-9.63 -39.64,-21.98 -56.17,-21.98 -0.45,-5.33 -3.71,-9.63 -4.16,-14.97l-31.59 0c-0.45,5.33 -3.71,9.63 -4.16,14.97z"/>
   <path class="fil0" d="M79.82 374.96l0 10.81 146.33 0c0,-14.88 0.6,-25.31 -13.88,-36.01 -5.61,-4.15 -23.02,-9.13 -30.19,-9.72 -6.74,10.07 -13.58,18.51 -29.17,18.97 -12.43,0.37 -23.35,-8.25 -29.02,-18.97 -7.14,0.59 -24.08,5.57 -29.79,9.28 -6.78,4.42 -14.27,14.68 -14.27,25.64z"/>
   <path class="fil1" d="M93.12 226.97l0.83 14.97c5.46,-0.12 7.17,-2.5 14.13,-2.5 0.89,-10.63 13.09,-19.96 26.61,-19.96 3.53,0 3.26,5.44 12.57,12.37 18.02,13.41 38.21,5.38 54.58,7.77 3.52,0.51 6.03,2.21 10.17,2.31 0,-10.07 3.5,-16.14 -3.32,-30.77 -3.92,-8.4 -11.94,-16.38 -20.22,-20.52 -13.7,-6.84 -36.23,-4.42 -54.61,-4.42 -19.68,0 -40.74,21.01 -40.74,40.74z"/>
   <path class="fil1" d="M252.74 226.97l0.83 14.97c5.66,-0.13 5.58,-2.5 17.46,-2.5 2.56,-4.83 4.27,-7.4 9.15,-9.98 -1.18,-5.06 -5.4,-9.04 -5.82,-14.13l10.81 -4.97c2.42,4.57 4.16,9.34 7.67,13.1 3.57,3.81 7.38,7.17 13.11,8.51l0 -12.47 13.3 0 0 14.97c0,6.03 5.77,11.64 14.97,11.64 8.89,0 17.02,-13.97 7.32,-23.12 -2.44,-2.3 -4.38,-3.49 -8.98,-3.49l0 -13.3c19.51,1.62 26.6,14.36 26.6,33.25 4.7,0.39 8.16,2.4 12.47,2.5 0,-12.37 5.71,-26.51 -14.3,-44.73 -1.13,-1.03 -1.34,-1.33 -2.66,-2.33 -6.05,-4.57 -15.06,-8.65 -22.94,-8.65 -18.56,0 -40.11,-2.35 -54.04,4.15 -12.65,5.9 -24.94,22 -24.94,36.59z"/>
   <path class="fil1" d="M279.35 59.03l0 29.93c0,15.34 15.43,30.76 30.76,30.76l4.99 0c15.34,0 30.76,-15.42 30.76,-30.76l0 -35.75 -31.6 0c-8.66,0 -17.34,-4.98 -19.12,-11.64 -8.07,0.18 -15.8,9.25 -15.8,17.46z"/>
   <path class="fil1" d="M119.72 244.43l0 37.41c0,9.44 4.83,16.07 9.76,21 21.59,21.6 56.75,4.63 56.75,-21l0 -29.1c-18.57,0 -32.97,0.57 -47.66,-11.38 -3.96,-3.22 -5.61,-3.96 -8.05,-8.58 -4.78,1.11 -10.81,5.97 -10.81,11.64z"/>
   <path class="fil1" d="M252.74 37.41c0,14.03 1.96,10.99 2.5,17.46 5.01,0 7.46,-1.66 12.47,-1.66 0.22,-9.83 11.1,-20.4 19.84,-23.39 1.05,-0.36 2.44,-0.62 3.83,-1.16 3.25,-1.26 1.53,0.21 3.09,-2.72 1.42,-2.66 1.77,-4.22 4.18,-6.63 5.86,-5.86 12.64,-6 20.61,-6l0 13.3c-5.47,0 -13.3,-1.26 -13.3,6.65 0,4.02 2.63,6.65 6.65,6.65l35.75 0c11.54,0 24.11,-12.56 24.11,-24.11 0,-7.22 1.58,-15.8 -6.65,-15.8l-75.66 0c-19.63,0 -37.42,17.78 -37.42,37.41z"/>
   <path class="fil1" d="M279.35 254.41l0 27.44c0,15.34 15.43,30.76 30.76,30.76 14.73,0 24.96,-4.75 31.87,-17.18 3.11,-5.59 3.93,-9.33 3.88,-17.74 -0.04,-7.48 -0,-14.97 -0,-22.45 -5.38,3.6 -13.27,5.14 -21.03,2.74 -10.22,-3.16 -13.22,-10.22 -14.97,-11.64 -1.96,-1.59 -2.08,-0.97 -5.05,-1.59 -2.42,-0.51 -3.05,-0.72 -5.22,-1.43 -6.15,-2.03 -6.85,-3.91 -8.96,-4.37 -5.41,-1.19 -11.28,9.71 -11.28,15.47z"/>
   <path class="fil0" d="M239.45 182.08l0 24.11c8.11,0 5.25,0.03 8.97,-6 10.37,-16.85 29.5,-27.26 50.89,-27.26 29.79,0 57.86,-2.99 77.17,26.75 4.15,6.39 0.93,6.51 9.29,6.51 0,-21.47 3.25,-36.66 -13.88,-49.31 -6.67,-4.93 -19.98,-7.54 -29.36,-9.72 -2.18,9.38 -17.77,19.12 -29.93,19.12 -12.42,0 -27.7,-9.55 -29.93,-19.12 -9.37,2.18 -22.69,4.79 -29.36,9.72 -6.8,5.03 -13.87,13.85 -13.87,25.2z"/>
   <path class="fil0" d="M337.55 385.77l48.23 0c0,-12.8 0.52,-24.5 -11.51,-34.22 -6.57,-5.3 -17.93,-9.18 -25.91,-9.85l-10.81 44.06z"/>
   <path class="fil0" d="M239.45 374.96l0 10.81 48.22 0 -11 -44.02c-17.24,1.26 -37.22,12.93 -37.22,33.21z"/>
   <path class="fil1" d="M53.21 140.51l0 5.82 13.3 0c0,-10.03 2.54,-19.66 5.09,-27.34 6.94,-20.95 28.53,-43.17 50.62,-48.32 -1.64,-3.42 -3.19,-9.17 -4.16,-13.3 -23.65,5.51 -47.93,28.97 -57.85,52.72 -3.17,7.58 -7,20.24 -7,30.42z"/>
   <path class="fil1" d="M310.95 152.98c12.44,0 20.78,-8.02 20.78,-13.3 0,-3.52 -2.16,-5.9 -2.5,-9.98 -19.71,4.6 -13.54,4.6 -33.25,0 -1.94,8.34 -5.61,8.72 0.23,15.57 3.18,3.74 8.2,7.71 14.74,7.71z"/>
   <path class="fil1" d="M133.86 330.9c0,2.24 6.82,14.97 17.46,14.97 7.31,0 11.88,-1.15 16.89,-8.05 6.79,-9.33 2.19,-5.68 1.4,-15.23 -19.14,4.46 -14.12,4.46 -33.26,0 -0.45,1.96 -2.49,7.08 -2.49,8.31z"/>
   <path class="fil0" d="M293.48 330.07l19.12 14.13c25.01,-16.75 17.31,-13.45 16.63,-21.62 -19.71,4.59 -13.54,4.59 -33.25,0 -0.56,2.38 -1.55,5.51 -2.5,7.48z"/>
   <path class="fil0" d="M295.98 385.77l33.25 0c-2.35,-3.51 -14.17,-19.97 -16.63,-21.62 -2.46,1.65 -14.28,18.1 -16.63,21.62z"/>
   <path class="fil1" d="M359.16 85.63c0,4.18 -0.75,3.72 -0.83,7.48 19.47,0 18.08,-26.6 0.83,-26.6l0 19.12z"/>
   <path class="fil1" d="M252.74 78.15c0,9.27 4.58,14.96 14.13,14.96 -0.08,-3.76 -0.83,-3.3 -0.83,-7.48l0 -19.12c-7.95,0 -13.3,6.79 -13.3,11.64z"/>
   <path class="fil1" d="M252.74 264.38c0,5.06 -0.1,7.31 4.32,11.48 2.44,2.3 4.38,3.49 8.98,3.49l0 -24.11c0,-3.18 -0.26,-0.31 0.83,-2.5 -4.9,0 -6.66,0.68 -9.39,3.09 -2.09,1.86 -4.75,4.98 -4.75,8.55z"/>
   <path class="fil1" d="M199.53 279.35c4.6,0 6.55,-1.19 8.99,-3.49 8.79,-8.28 3.85,-23.12 -8.99,-23.12l0 26.61z"/>
   <path class="fil1" d="M93.12 264.38c0,8.89 4.69,14.97 13.3,14.97l0 -26.61c-7.64,0 -13.3,5.93 -13.3,11.64z"/>
   <path class="fil1" d="M359.16 279.35c4.6,0 6.55,-1.19 8.99,-3.49 5.92,-5.58 5.92,-14.04 0,-19.63 -2.44,-2.3 -4.39,-3.49 -8.99,-3.49l0 26.61z"/>
   <path class="fil1" d="M132.19 54.04c0,5.84 1.26,8.53 1.66,13.3 5.38,0 8.26,-0.83 12.47,-0.83l0 -13.3 -14.13 0.83z"/>
   <path class="fil0" d="M295.15 364.15c2.23,-1.5 6.91,-8.17 8.31,-10.81 -3.76,-1.99 -9.17,-7.43 -12.47,-8.31 0.51,6.21 4.02,12.84 4.16,19.12z"/>
   <path class="fil0" d="M321.75 353.35c1.4,2.64 6.08,9.31 8.32,10.81 0.14,-6.28 3.64,-12.91 4.15,-19.12 -3.3,0.88 -8.7,6.32 -12.47,8.31z"/>
  </g>
 </g>
</svg>
