<?xml version="1.0" encoding="UTF-8"?>
<!DOCTYPE svg PUBLIC "-//W3C//DTD SVG 1.1//EN" "http://www.w3.org/Graphics/SVG/1.1/DTD/svg11.dtd">
<!-- Creator: CorelDRAW 2019 (64-Bit) -->
<svg xmlns="http://www.w3.org/2000/svg" xml:space="preserve" width="75.1019mm" height="27.0933mm" version="1.1" style="shape-rendering:geometricPrecision; text-rendering:geometricPrecision; image-rendering:optimizeQuality; fill-rule:evenodd; clip-rule:evenodd"
viewBox="0 0 15488.08 5587.39"
 xmlns:xlink="http://www.w3.org/1999/xlink"
 xmlns:xodm="http://www.corel.com/coreldraw/odm/2003">
 <defs>
  <style type="text/css">
   <![CDATA[
    .fil5 {fill:#FEFEFE}
    .fil0 {fill:#F39314}
    .fil8 {fill:#E51A4B}
    .fil1 {fill:#E31E24}
    .fil7 {fill:#00A0E3}
    .fil4 {fill:#008DD2}
    .fil6 {fill:#393185}
    .fil3 {fill:#FEFEFE;fill-rule:nonzero}
    .fil2 {fill:#2B2A29;fill-rule:nonzero}
    .fil9 {fill:#1B4E9B;fill-rule:nonzero}
   ]]>
  </style>
      <mask id="id0">
  <linearGradient id="id1" gradientUnits="userSpaceOnUse" x1="2780.97" y1="1834.49" x2="481.05" y2="1829.34">
   <stop offset="0" style="stop-opacity:1; stop-color:white"/>
   <stop offset="1" style="stop-opacity:0; stop-color:white"/>
  </linearGradient>
       <rect style="fill:url(#id1)" x="491.4" y="792.66" width="2820.49" height="1818.43"/>
      </mask>
      <mask id="id2">
  <linearGradient id="id3" gradientUnits="userSpaceOnUse" x1="876.35" y1="1803.62" x2="2590.22" y2="1796">
   <stop offset="0" style="stop-opacity:1; stop-color:white"/>
   <stop offset="1" style="stop-opacity:0; stop-color:white"/>
  </linearGradient>
       <rect style="fill:url(#id3)" x="724.75" y="1127.03" width="1756.07" height="1147.41"/>
      </mask>
      <mask id="id4">
  <linearGradient id="id5" gradientUnits="userSpaceOnUse" x1="1166.19" y1="1714.69" x2="499.26" y2="1714.69">
   <stop offset="0" style="stop-opacity:1; stop-color:white"/>
   <stop offset="1" style="stop-opacity:0; stop-color:white"/>
  </linearGradient>
       <rect style="fill:url(#id5)" x="491.4" y="1626.25" width="793.25" height="112.97"/>
      </mask>
      <mask id="id6">
  <linearGradient id="id7" gradientUnits="userSpaceOnUse" x1="660.74" y1="2580.38" x2="3540.78" y2="332.4">
   <stop offset="0" style="stop-opacity:1; stop-color:white"/>
   <stop offset="1" style="stop-opacity:0; stop-color:white"/>
  </linearGradient>
       <rect style="fill:url(#id7)" x="1797.67" y="664.09" width="1622.1" height="1039.35"/>
      </mask>
 </defs>
 <g id="Layer_x0020_1">
  <metadata id="CorelCorpID_0Corel-Layer"/>
  <g id="_1822933740352">
   <g>
    <polygon class="fil0" points="-0,0 3911.17,0 3911.17,4469.92 -0,4469.92 "/>
    <g>
     <polygon class="fil1" points="-0,4637.54 3911.17,4637.54 3911.17,4469.92 -0,4469.92 "/>
     <polygon class="fil1" points="-0,5587.39 3911.17,5587.39 3911.17,5419.78 -0,5419.78 "/>
    </g>
    <path class="fil2" d="M686.92 5300.98l141.47 0c89.38,0 133.31,-47.49 133.31,-134.79l0 -275.83c0,-87.28 -43.93,-134.85 -133.31,-134.85l-141.47 0 0 545.47zm139.82 -467.54c28.46,0 45.54,14.02 45.54,53.02l0 283.62c0,38.96 -17.08,52.98 -45.54,52.98l-50.38 0 0 -389.63 50.38 0zm187.83 -77.93l0 415.36c0,87.3 45.51,137.16 133.28,137.16 87.79,0 133.35,-49.87 133.35,-137.16l0 -415.36 -84.57 0 0 420.81c0,38.96 -17.84,53 -46.3,53 -28.46,0 -46.34,-14.04 -46.34,-53l0 -420.81 -89.42 0zm605.63 545.47c-8.93,-20.25 -9.75,-39.76 -9.75,-66.24l0 -84.12c0,-56.88 -14.62,-97.42 -59.33,-115.32l0 -1.59c39.84,-17.92 58.53,-53.74 58.53,-109.88l0 -42.85c0,-84.18 -39.82,-125.47 -132.5,-125.47l-134.96 0 0 545.47 89.42 0 0 -222.09 30.87 0c40.67,0 58.53,18.7 58.53,69.37l0 85.73c0,44.42 3.28,52.98 8.17,66.98l91.03 0zm-145.51 -467.54c31.7,0 45.54,17.16 45.54,56.11l0 53.78c0,43.64 -20.33,57.62 -53.66,57.62l-34.96 0 0 -167.52 43.08 0zm328.48 241.55l40.63 0 0 100.54c0,38.98 -17.88,52.98 -46.34,52.98 -28.46,0 -46.34,-14 -46.34,-52.98l0 -294.55c0,-38.96 17.88,-53.74 46.34,-53.74 28.46,0 46.34,14.79 46.34,53.74l0 58.44 84.55 0 0 -52.96c0,-87.32 -45.54,-137.16 -133.35,-137.16 -87.77,0 -133.33,49.85 -133.33,137.16l0 283.62c0,87.25 45.56,137.12 133.33,137.12 87.81,0 133.35,-49.87 133.35,-137.12l0 -173 -125.18 0 0 77.91zm380.47 -319.49l-130.91 0 -91.05 545.47 82.1 0 15.45 -98.97 109.77 0 15.45 98.97 90.25 0 -91.05 -545.47zm-70.74 96.66l1.61 0 42.3 275.83 -86.18 0 42.28 -275.83zm334.98 -96.66l-131.72 0 0 545.47 89.42 0 0 -204.91 42.3 0c89.4,0 133.33,-47.54 133.33,-134.85l0 -70.86c0,-87.28 -43.93,-134.85 -133.33,-134.85zm0 77.93c28.44,0 43.91,12.46 43.91,51.43l0 81.85c0,38.92 -15.47,51.39 -43.91,51.39l-42.3 0 0 -184.68 42.3 0zm170.72 -77.93l0 415.36c0,87.3 45.51,137.16 133.31,137.16 87.79,0 133.35,-49.87 133.35,-137.16l0 -415.36 -84.55 0 0 420.81c0,38.96 -17.88,53 -46.32,53 -28.46,0 -46.36,-14.04 -46.36,-53l0 -420.81 -89.42 0zm605.65 545.47c-8.93,-20.25 -9.78,-39.76 -9.78,-66.24l0 -84.12c0,-56.88 -14.62,-97.42 -59.33,-115.32l0 -1.59c39.86,-17.92 58.53,-53.74 58.53,-109.88l0 -42.85c0,-84.18 -39.82,-125.47 -132.5,-125.47l-134.96 0 0 545.47 89.42 0 0 -222.09 30.91 0c40.67,0 58.51,18.7 58.51,69.37l0 85.73c0,44.42 3.26,52.98 8.13,66.98l91.07 0zm-145.49 -467.54c31.68,0 45.49,17.16 45.49,56.11l0 53.78c0,43.64 -20.31,57.62 -53.64,57.62l-34.98 0 0 -167.52 43.12 0z"/>
    <path class="fil3" d="M1360.96 3984.38c0,119.51 -59.74,179.25 -178.98,179.25l-249.62 0c-22.89,0 -37.99,-5.03 -44.96,-14.81 -6.99,-9.75 -10.62,-27.63 -10.62,-53.89l0 -58.92c0,-34.89 5.88,-55.85 17.88,-63.11 7.26,-4.74 19.26,-7.26 36.03,-7.26l172.55 0c30.15,0 45.23,-14.79 45.23,-44.11 0,-12.56 -3.34,-25.12 -10.04,-37.7l-189.59 -356.57c-51.39,-97.17 -77.07,-189.87 -77.07,-278.1 0,-74.28 17.3,-127.32 51.64,-158.88 32.13,-29.33 84.33,-44.13 156.09,-44.13l191.54 0c31,0 46.63,20.11 46.63,60.59l0 73.44c0,42.73 -17.3,63.95 -51.64,63.95l-149.68 0c-34.34,0 -51.37,15.92 -51.37,47.47 0,16.46 4.74,33.22 14.52,50.81l179.27 330.31c68.12,125.39 102.19,229.24 102.19,311.63zm582.74 -893.25l-165.29 1027.55c-4.74,29.88 -20.11,44.96 -45.8,44.96l-177.58 0c-24.85,0 -39.93,-15.08 -44.96,-44.96l-165.85 -1027.55c-4.48,-29.88 5.59,-44.96 30.15,-44.96l129.28 0c25.7,0 40.48,17.88 44.96,53.89l80.14 636.65c2.23,16.19 7.53,24.56 15.63,24.56 7.53,0 12.56,-8.37 14.79,-24.56l80.14 -636.65c4.76,-36.01 20.11,-53.89 45.8,-53.89l128.44 0c25.14,0 35.18,15.08 30.15,44.96zm502.33 893.25c0,119.51 -59.74,179.25 -178.98,179.25l-249.62 0c-22.89,0 -37.99,-5.03 -44.96,-14.81 -6.99,-9.75 -10.62,-27.63 -10.62,-53.89l0 -58.92c0,-34.89 5.88,-55.85 17.88,-63.11 7.26,-4.74 19.26,-7.26 36.03,-7.26l172.55 0c30.15,0 45.23,-14.79 45.23,-44.11 0,-12.56 -3.34,-25.12 -10.04,-37.7l-189.59 -356.57c-51.39,-97.17 -77.07,-189.87 -77.07,-278.1 0,-74.28 17.3,-127.32 51.64,-158.88 32.13,-29.33 84.33,-44.13 156.09,-44.13l191.54 0c31,0 46.63,20.11 46.63,60.59l0 73.44c0,42.73 -17.3,63.95 -51.64,63.95l-149.68 0c-34.34,0 -51.37,15.92 -51.37,47.47 0,16.46 4.74,33.22 14.52,50.81l179.27 330.31c68.12,125.39 102.19,229.24 102.19,311.63zm593.36 -380.3c0,166.96 -5.32,287.03 -15.65,360.75 -11.45,79.58 -32.38,133.74 -62.82,161.95 -26.81,24.56 -70.92,36.85 -132.62,36.85l-271.68 0c-28.21,0 -45.8,-6.97 -52.22,-21.22 -4.48,-9.22 -6.7,-26.25 -6.7,-50.81l0 -970.03c0,-50.26 18.15,-75.4 54.16,-75.4l286.22 0c87.94,0 144.63,41.88 170.03,125.94 20.95,67 31.28,211.09 31.28,431.96zm-199.65 16.46c0,-135.97 -1.4,-223.37 -4.19,-262.73 -3.07,-52.22 -11.45,-85.17 -24.58,-98.87 -9.22,-9.75 -31,-14.79 -65.33,-14.79 -23.45,0 -38.81,2.78 -45.8,8.1 -6.97,5.57 -10.6,19.53 -10.6,41.86l0 626.58c0,20.66 3.07,33.24 9.49,37.99 6.15,4.74 23.47,6.97 51.95,6.97 30.42,0 50.26,-5.01 59.48,-14.79 12.56,-13.14 20.93,-43.29 24.56,-90.76 3.36,-40.19 5.03,-120.33 5.03,-239.57z"/>
    <g>
     <polygon class="fil4" points="1746.38,558.75 1859.62,558.75 1859.62,2724.41 1746.38,2724.41 "/>
     <polygon class="fil5" points="1718.29,671.95 1890.26,671.95 1890.26,2601.17 1718.29,2601.17 "/>
     <path class="fil6" style="mask:url(#id0)" d="M1901.65 800.51c774.53,0 1402.39,403.57 1402.39,901.36 0,497.81 -627.86,901.36 -1402.39,901.36 -774.51,0 -1402.39,-403.55 -1402.39,-901.36 0,-497.79 627.88,-901.36 1402.39,-901.36z"/>
     <path class="fil5" d="M1628.46 1032c537.28,0 972.84,297.09 972.84,663.58 0,366.49 -435.55,663.6 -972.84,663.6 -537.28,0 -972.86,-297.11 -972.86,-663.6 0,-366.49 435.57,-663.58 972.86,-663.58z"/>
     <path class="fil6" style="mask:url(#id2)" d="M1602.78 1134.89c480.59,0 870.18,253.35 870.18,565.85 0,312.5 -389.58,565.85 -870.18,565.85 -480.57,0 -870.18,-253.35 -870.18,-565.85 0,-312.5 389.61,-565.85 870.18,-565.85z"/>
     <path class="fil5" d="M1777.33 1263.49c341.66,0 618.62,186.55 618.62,416.66 0,230.13 -276.96,416.66 -618.62,416.66 -341.66,0 -618.62,-186.53 -618.62,-416.66 0,-230.11 276.96,-416.66 618.62,-416.66z"/>
     <polygon class="fil7" style="mask:url(#id4)" points="499.26,1731.36 499.26,1634.11 1276.8,1634.11 1276.8,1731.36 "/>
     <path class="fil6" style="mask:url(#id6)" d="M1809.48 1695.58l-3.96 -1023.63c1.32,0 2.64,0 3.96,0 868.98,0 1579.72,442.17 1602.43,996.9l-1602.43 26.73z"/>
     <path class="fil8" d="M1805.23 1698.04l1.13 313.86c-0.37,0 -0.76,0 -1.13,0 -250.09,0 -454.63,-135.57 -461.17,-305.65l461.17 -8.21z"/>
    </g>
   </g>
   <path class="fil9" d="M4454.5 1076.47c62.73,34.67 188.2,69.33 315.34,69.33 305.44,0 447.41,-158.51 447.41,-345.06 0,-156.84 -90.8,-259.21 -287.28,-331.84 -145.29,-54.49 -206.37,-85.85 -206.37,-156.86 0,-56.11 52.84,-107.3 161.81,-107.3 107.3,0 188.2,31.37 231.14,52.84l56.14 -201.42c-66.03,-31.37 -156.86,-56.14 -283.98,-56.14 -260.86,0 -421.01,143.64 -421.01,333.49 0,161.81 122.19,264.16 307.09,330.19 133.74,46.24 186.55,85.85 186.55,155.21 0,72.63 -61.06,120.52 -176.65,120.52 -107.3,0 -212.97,-34.67 -279.01,-69.33l-51.19 206.37zm1390.14 52.81l105.67 -478.78c26.4,-112.27 44.57,-217.92 64.38,-343.41l3.3 0c13.2,127.14 31.37,231.14 52.84,343.41l94.1 478.78 272.41 0 287.28 -1112.76 -255.91 0 -90.8 454.03c-23.12,133.72 -47.89,264.16 -64.38,387.98l-3.3 0c-16.52,-123.82 -34.67,-242.69 -59.43,-373.13l-89.15 -468.88 -267.46 0 -94.12 454.03c-28.07,138.69 -54.46,272.41 -72.63,392.93l-3.3 0c-18.17,-112.27 -41.29,-255.89 -66.03,-389.63l-84.22 -457.33 -269.11 0 264.18 1112.76 275.71 0zm1499.11 -285.63l85.85 285.63 272.41 0 -346.71 -1112.76 -330.19 0 -338.46 1112.76 259.21 0 79.25 -285.63 318.64 0zm-282.33 -188.2l66.03 -236.09c18.17,-64.38 34.67,-148.59 51.19,-214.62l3.3 0c16.52,66.03 36.32,148.59 56.14,214.62l69.33 236.09 -245.99 0zm1746.75 473.83l244.36 0 -59.46 -1112.76 -330.19 0 -117.22 369.83c-37.97,123.82 -75.95,270.76 -105.67,399.55l-6.6 0c-24.77,-130.44 -57.78,-269.13 -94.1,-397.9l-108.97 -371.48 -335.14 0 -71 1112.76 232.79 0 21.47 -422.64c6.6,-138.69 13.2,-310.39 18.15,-460.63l3.32 0c28.05,145.29 64.38,303.77 100.7,435.86l118.87 429.26 196.47 0 135.39 -434.21c42.92,-130.44 89.15,-288.92 125.47,-430.91l3.3 0c0,161.81 4.95,323.59 9.9,457.33l18.17 425.94zm439.16 -1112.76l0 1112.76 250.96 0 0 -1112.76 -250.96 0zm-4193.51 2583.97l374.78 -1112.76 -267.48 0 -141.97 475.48c-37.99,127.12 -72.65,259.21 -100.72,392.93l-4.95 0c-26.42,-138.67 -61.08,-264.16 -99.07,-397.87l-135.37 -470.53 -275.73 0 356.63 1112.76 293.87 0zm495.3 -1112.76l0 1112.76 250.94 0 0 -1112.76 -250.94 0zm1025.26 1112.76l374.78 -1112.76 -267.46 0 -141.99 475.48c-37.99,127.12 -72.65,259.21 -100.72,392.93l-4.95 0c-26.42,-138.67 -61.08,-264.16 -99.07,-397.87l-135.37 -470.53 -275.73 0 356.63 1112.76 293.87 0zm1155.7 -675.25l-409.46 0 0 -231.14 434.21 0 0 -206.37 -685.15 0 0 1112.76 708.27 0 0 -206.37 -457.33 0 0 -264.16 409.46 0 0 -204.72zm219.57 675.25l249.31 0 0 -363.23 94.1 -117.2 274.06 480.43 292.22 0 -386.33 -638.93 368.18 -473.83 -310.39 0 -250.96 369.83c-26.42,39.62 -52.84,79.23 -77.58,122.17l-3.3 0 0 -492 -249.31 0 0 1112.76zm1613.03 -285.63l85.85 285.63 272.41 0 -346.71 -1112.76 -330.19 0 -338.46 1112.76 259.21 0 79.25 -285.63 318.64 0zm-282.33 -188.2l66.03 -236.09c18.17,-64.4 34.67,-148.61 51.19,-214.64l3.3 0c16.52,66.03 36.32,148.59 56.14,214.64l69.33 236.09 -245.99 0zm1018.66 473.83l0 -335.14c0,-181.62 -3.3,-338.46 -11.55,-487.05l6.6 0c52.84,130.42 127.12,274.06 193.15,392.93l237.76 429.26 264.16 0 0 -1112.76 -231.14 0 0 323.59c0,168.41 4.95,318.64 19.82,465.58l-3.32 0c-51.17,-125.47 -115.57,-264.16 -181.6,-381.38l-231.14 -407.79 -293.87 0 0 1112.76 231.14 0zm1485.89 -285.63l85.85 285.63 272.41 0 -346.71 -1112.76 -330.19 0 -338.46 1112.76 259.21 0 79.25 -285.63 318.64 0zm-282.33 -188.2l66.03 -236.09c18.17,-64.4 34.69,-148.61 51.19,-214.64l3.3 0c16.52,66.03 36.34,148.59 56.14,214.64l69.35 236.09 -246.01 0zm1018.66 473.83l0 -335.14c0,-181.62 -3.3,-338.46 -11.55,-487.05l6.6 0c52.84,130.42 127.14,274.06 193.17,392.93l237.74 429.26 264.16 0 0 -1112.76 -231.14 0 0 323.59c0,168.41 4.95,318.64 19.82,465.58l-3.3 0c-51.19,-125.47 -115.57,-264.16 -181.6,-381.38l-231.14 -407.79 -293.87 0 0 1112.76 231.12 0zm908.06 -4.95c61.08,8.25 155.19,16.5 285.6,16.5 217.94,0 397.9,-46.22 515.12,-143.64 105.67,-90.8 183.27,-237.74 183.27,-450.71 0,-196.47 -72.65,-333.49 -188.22,-419.36 -105.67,-79.23 -244.36,-118.87 -457.33,-118.87 -125.47,0 -245.99,9.92 -338.44,24.77l0 1091.32zm250.94 -912.99c21.47,-4.97 59.43,-9.92 113.92,-9.92 217.92,0 353.31,122.17 353.31,353.31 0,265.81 -150.24,391.3 -379.73,389.65 -29.72,0 -66.03,0 -87.5,-4.97l0 -728.07zm1449.57 632.31l85.85 285.63 272.43 0 -346.73 -1112.76 -330.19 0 -338.46 1112.76 259.23 0 79.23 -285.63 318.64 0zm-282.33 -188.2l66.05 -236.09c18.15,-64.4 34.67,-148.61 51.17,-214.64l3.32 0c16.5,66.03 36.32,148.59 56.14,214.64l69.33 236.09 -246.01 0zm-10392.98 1892.2c62.73,34.67 188.2,69.33 315.34,69.33 305.44,0 447.41,-158.49 447.41,-345.06 0,-156.84 -90.8,-259.21 -287.28,-331.84 -145.29,-54.49 -206.37,-85.85 -206.37,-156.86 0,-56.11 52.84,-107.3 161.81,-107.3 107.3,0 188.2,31.37 231.14,52.84l56.14 -201.42c-66.03,-31.37 -156.86,-56.14 -283.98,-56.14 -260.86,0 -421.01,143.64 -421.01,333.49 0,161.81 122.19,264.16 307.09,330.19 133.74,46.24 186.55,85.87 186.55,155.21 0,72.63 -61.06,120.52 -176.65,120.52 -107.3,0 -212.97,-34.67 -279.01,-69.33l-51.19 206.37zm1713.73 -175c-51.19,21.47 -133.74,36.32 -211.32,36.32 -222.89,0 -354.96,-140.34 -354.96,-363.23 0,-247.64 155.19,-368.16 353.31,-368.16 90.8,0 161.79,19.82 211.32,41.27l52.84 -198.12c-44.59,-24.75 -143.64,-49.52 -274.08,-49.52 -336.79,0 -607.55,209.67 -607.55,589.4 0,316.99 198.1,558.03 582.8,558.03 133.72,0 239.39,-26.42 283.95,-47.87l-36.32 -198.12zm204.72 -884.94l0 1112.78 250.96 0 0 -465.6 414.39 0 0 465.6 250.96 0 0 -1112.78 -250.96 0 0 427.61 -414.39 0 0 -427.61 -250.96 0zm1626.23 -19.8c-326.89,0 -541.51,249.29 -541.51,582.8 0,318.64 194.8,567.93 523.36,567.93 326.89,0 546.48,-219.57 546.48,-586.1 0,-308.72 -186.57,-564.63 -528.33,-564.63zm-4.95 199.77c173.35,0 267.46,171.68 267.46,373.13 0,216.27 -97.4,378.06 -267.46,378.06 -168.41,0 -270.76,-153.54 -270.76,-373.13 0,-216.27 99.05,-378.06 270.76,-378.06zm1188.72 -199.77c-326.89,0 -541.53,249.29 -541.53,582.8 0,318.64 194.82,567.93 523.36,567.93 326.91,0 546.48,-219.57 546.48,-586.1 0,-308.72 -186.55,-564.63 -528.31,-564.63zm-4.95 199.77c173.35,0 267.46,171.68 267.46,373.13 0,216.27 -97.4,378.06 -267.46,378.06 -168.41,0 -270.78,-153.54 -270.78,-373.13 0,-216.27 99.07,-378.06 270.78,-378.06zm700.02 932.81l693.42 0 0 -211.34 -442.48 0 0 -901.44 -250.94 0 0 1112.78zm1665.84 -1132.58c-326.89,0 -541.51,249.29 -541.51,582.8 0,318.64 194.8,567.93 523.36,567.93 326.89,0 546.46,-219.57 546.46,-586.1 0,-308.72 -186.55,-564.63 -528.31,-564.63zm-4.95 199.77c173.35,0 267.46,171.68 267.46,373.13 0,216.27 -97.4,378.06 -267.46,378.06 -168.41,0 -270.76,-153.54 -270.76,-373.13 0,-216.27 99.05,-378.06 270.76,-378.06zm700.02 932.81l250.96 0 0 -447.43 399.52 0 0 -204.72 -399.52 0 0 -254.26 427.59 0 0 -206.37 -678.55 0 0 1112.78zm-7741.49 1466.24c61.08,8.25 155.19,16.52 285.6,16.52 217.94,0 397.9,-46.24 515.12,-143.64 105.67,-90.8 183.27,-237.76 183.27,-450.73 0,-196.47 -72.65,-333.49 -188.22,-419.34 -105.67,-79.25 -244.36,-118.87 -457.33,-118.87 -125.47,0 -245.99,9.9 -338.44,24.77l0 1091.29zm250.94 -912.99c21.47,-4.95 59.43,-9.92 113.92,-9.92 217.92,0 353.31,122.19 353.31,353.33 0,265.81 -150.24,391.28 -379.73,389.63 -29.72,0 -66.03,0 -87.5,-4.95l0 -728.09zm899.79 -194.82l0 1112.76 250.96 0 0 -1112.76 -250.96 0zm468.88 1112.76l249.31 0 0 -399.55c23.1,4.97 52.84,6.62 85.85,6.62 148.59,0 275.71,-37.97 361.56,-117.22 67.68,-61.08 102.37,-155.21 102.37,-264.18 0,-108.95 -46.24,-201.4 -118.89,-257.54 -74.28,-59.43 -184.9,-89.15 -340.09,-89.15 -153.56,0 -262.51,9.9 -340.11,23.12l0 1097.89zm249.31 -921.24c18.15,-4.97 52.84,-8.27 102.35,-8.27 127.14,0 198.12,61.08 198.12,163.46 0,112.27 -82.55,179.95 -216.27,179.95 -37.99,0 -62.76,-1.65 -84.2,-6.6l0 -328.54zm711.57 921.24l693.42 0 0 -211.32 -442.46 0 0 -901.44 -250.96 0 0 1112.76zm1269.62 -1132.58c-326.91,0 -541.53,249.31 -541.53,582.8 0,318.64 194.82,567.95 523.36,567.95 326.89,0 546.48,-219.59 546.48,-586.1 0,-308.74 -186.57,-564.65 -528.31,-564.65zm-4.95 199.77c173.33,0 267.46,171.71 267.46,373.13 0,216.29 -97.42,378.08 -267.46,378.08 -168.43,0 -270.78,-153.54 -270.78,-373.13 0,-216.27 99.07,-378.08 270.78,-378.08zm1657.57 932.81l244.36 0 -59.43 -1112.76 -330.21 0 -117.22 369.83c-37.97,123.82 -75.93,270.76 -105.65,399.55l-6.62 0c-24.75,-130.44 -57.76,-269.13 -94.1,-397.9l-108.97 -371.48 -335.14 0 -71 1112.76 232.81 0 21.45 -422.64c6.6,-138.69 13.22,-310.39 18.17,-460.63l3.3 0c28.07,145.29 64.38,303.77 100.72,435.86l118.87 429.24 196.45 0 135.39 -434.19c42.94,-130.44 89.15,-288.92 125.47,-430.91l3.3 0c0,161.79 4.97,323.59 9.92,457.33l18.15 425.94zm1010.41 -285.63l85.85 285.63 272.43 0 -346.71 -1112.76 -330.21 0 -338.46 1112.76 259.23 0 79.23 -285.63 318.64 0zm-282.3 -188.2l66.03 -236.09c18.15,-64.4 34.67,-148.59 51.17,-214.62l3.32 0c16.5,66.03 36.32,148.57 56.14,214.62l69.33 236.09 -245.99 0z"/>
  </g>
 </g>
</svg>
