<?xml version="1.0" encoding="UTF-8"?>
<!DOCTYPE svg PUBLIC "-//W3C//DTD SVG 1.1//EN" "http://www.w3.org/Graphics/SVG/1.1/DTD/svg11.dtd">
<!-- Creator: CorelDRAW 2019 (64-Bit) -->
<svg xmlns="http://www.w3.org/2000/svg" xml:space="preserve" width="6.7732mm" height="2.4435mm" version="1.1" style="shape-rendering:geometricPrecision; text-rendering:geometricPrecision; image-rendering:optimizeQuality; fill-rule:evenodd; clip-rule:evenodd"
viewBox="0 0 33.02 11.91"
 xmlns:xlink="http://www.w3.org/1999/xlink"
 xmlns:xodm="http://www.corel.com/coreldraw/odm/2003">
 <defs>
  <style type="text/css">
   <![CDATA[
    .fil8 {fill:none}
    .fil4 {fill:#008DD2}
    .fil11 {fill:#00A0E3}
    .fil7 {fill:#393185}
    .fil1 {fill:#E31E24}
    .fil13 {fill:#E51A4B}
    .fil0 {fill:#F39314}
    .fil5 {fill:#FEFEFE}
    .fil14 {fill:#FEFEFE;fill-rule:nonzero}
    .fil2 {fill:#2B2A29;fill-rule:nonzero}
    .fil3 {fill:#FEFEFE;fill-rule:nonzero}
    .fil9 {fill:url(#id12)}
    .fil6 {fill:url(#id13)}
    .fil10 {fill:url(#id14)}
    .fil12 {fill:url(#id15)}
   ]]>
  </style>
      <clipPath id="id0">
       <path d="M1.05 5.57l6.01 0 0 -3.88 -6.01 0 0 3.88z"/>
      </clipPath>
        <mask id="id1">
  <linearGradient id="id2" gradientUnits="userSpaceOnUse" x1="5.92" y1="3.91" x2="1.04" y2="3.9">
   <stop offset="0" style="stop-opacity:1; stop-color:white"/>
   <stop offset="1" style="stop-opacity:0; stop-color:white"/>
  </linearGradient>
         <rect style="fill:url(#id2)" x="0.88" y="1.52" width="6.35" height="4.21"/>
        </mask>
      <clipPath id="id3">
       <path d="M1.54 4.85l3.74 0 0 -2.45 -3.74 0 0 2.45z"/>
      </clipPath>
        <mask id="id4">
  <linearGradient id="id5" gradientUnits="userSpaceOnUse" x1="1.88" y1="3.84" x2="5.5" y2="3.83">
   <stop offset="0" style="stop-opacity:1; stop-color:white"/>
   <stop offset="1" style="stop-opacity:0; stop-color:white"/>
  </linearGradient>
         <rect style="fill:url(#id5)" x="1.38" y="2.23" width="4.08" height="2.78"/>
        </mask>
      <clipPath id="id6">
       <path d="M1.05 3.71l1.69 0 0 -0.24 -1.69 0 0 0.24z"/>
      </clipPath>
        <mask id="id7">
  <linearGradient id="id8" gradientUnits="userSpaceOnUse" x1="2.47" y1="3.64" x2="1.08" y2="3.64">
   <stop offset="0" style="stop-opacity:1; stop-color:white"/>
   <stop offset="1" style="stop-opacity:0; stop-color:white"/>
  </linearGradient>
         <rect style="fill:url(#id8)" x="0.88" y="3.3" width="2.03" height="0.58"/>
        </mask>
      <clipPath id="id9">
       <path d="M3.83 3.63l3.46 0 0 -2.22 -3.46 0 0 2.22z"/>
      </clipPath>
        <mask id="id10">
  <linearGradient id="id11" gradientUnits="userSpaceOnUse" x1="1.45" y1="5.45" x2="7.53" y2="0.73">
   <stop offset="0" style="stop-opacity:1; stop-color:white"/>
   <stop offset="1" style="stop-opacity:0; stop-color:white"/>
  </linearGradient>
         <rect style="fill:url(#id11)" x="3.66" y="1.25" width="3.8" height="2.55"/>
        </mask>
  <linearGradient id="id12" gradientUnits="userSpaceOnUse" x1="1.87" y1="3.84" x2="5.52" y2="3.83">
   <stop offset="0" style="stop-opacity:1; stop-color:white"/>
   <stop offset="1" style="stop-opacity:0; stop-color:white"/>
  </linearGradient>
  <linearGradient id="id13" gradientUnits="userSpaceOnUse" xlink:href="#id12" x1="5.93" y1="3.91" x2="1.03" y2="3.9">
  </linearGradient>
  <linearGradient id="id14" gradientUnits="userSpaceOnUse" xlink:href="#id12" x1="2.49" y1="3.65" x2="1.06" y2="3.65">
  </linearGradient>
  <linearGradient id="id15" gradientUnits="userSpaceOnUse" xlink:href="#id12" x1="1.41" y1="5.5" x2="7.55" y2="0.71">
  </linearGradient>
 </defs>
 <g id="Layer_x0020_1">
  <metadata id="CorelCorpID_0Corel-Layer"/>
  <g id="_1822933740352">
   <g>
    <polygon class="fil0" points="-0,0 8.34,0 8.34,9.53 -0,9.53 "/>
    <g>
     <polygon class="fil1" points="-0,9.89 8.34,9.89 8.34,9.53 -0,9.53 "/>
     <polygon class="fil1" points="-0,11.91 8.34,11.91 8.34,11.55 -0,11.55 "/>
    </g>
    <path class="fil2" d="M1.46 11.3l0.3 0c0.19,0 0.28,-0.1 0.28,-0.29l0 -0.59c0,-0.19 -0.09,-0.29 -0.28,-0.29l-0.3 0 0 1.16zm0.3 -1c0.06,0 0.1,0.03 0.1,0.11l0 0.6c0,0.08 -0.04,0.11 -0.1,0.11l-0.11 0 0 -0.83 0.11 0zm0.4 -0.17l0 0.89c0,0.19 0.1,0.29 0.28,0.29 0.19,0 0.28,-0.11 0.28,-0.29l0 -0.89 -0.18 0 0 0.9c0,0.08 -0.04,0.11 -0.1,0.11 -0.06,0 -0.1,-0.03 -0.1,-0.11l0 -0.9 -0.19 0zm1.29 1.16c-0.02,-0.04 -0.02,-0.08 -0.02,-0.14l0 -0.18c0,-0.12 -0.03,-0.21 -0.13,-0.25l0 -0c0.08,-0.04 0.12,-0.11 0.12,-0.23l0 -0.09c0,-0.18 -0.08,-0.27 -0.28,-0.27l-0.29 0 0 1.16 0.19 0 0 -0.47 0.07 0c0.09,0 0.12,0.04 0.12,0.15l0 0.18c0,0.09 0.01,0.11 0.02,0.14l0.19 0zm-0.31 -1c0.07,0 0.1,0.04 0.1,0.12l0 0.11c0,0.09 -0.04,0.12 -0.11,0.12l-0.07 0 0 -0.36 0.09 0zm0.7 0.52l0.09 0 0 0.21c0,0.08 -0.04,0.11 -0.1,0.11 -0.06,0 -0.1,-0.03 -0.1,-0.11l0 -0.63c0,-0.08 0.04,-0.11 0.1,-0.11 0.06,0 0.1,0.03 0.1,0.11l0 0.12 0.18 0 0 -0.11c0,-0.19 -0.1,-0.29 -0.28,-0.29 -0.19,0 -0.28,0.11 -0.28,0.29l0 0.6c0,0.19 0.1,0.29 0.28,0.29 0.19,0 0.28,-0.11 0.28,-0.29l0 -0.37 -0.27 0 0 0.17zm0.81 -0.68l-0.28 0 -0.19 1.16 0.17 0 0.03 -0.21 0.23 0 0.03 0.21 0.19 0 -0.19 -1.16zm-0.15 0.21l0 0 0.09 0.59 -0.18 0 0.09 -0.59zm0.71 -0.21l-0.28 0 0 1.16 0.19 0 0 -0.44 0.09 0c0.19,0 0.28,-0.1 0.28,-0.29l0 -0.15c0,-0.19 -0.09,-0.29 -0.28,-0.29zm0 0.17c0.06,0 0.09,0.03 0.09,0.11l0 0.17c0,0.08 -0.03,0.11 -0.09,0.11l-0.09 0 0 -0.39 0.09 0zm0.36 -0.17l0 0.89c0,0.19 0.1,0.29 0.28,0.29 0.19,0 0.28,-0.11 0.28,-0.29l0 -0.89 -0.18 0 0 0.9c0,0.08 -0.04,0.11 -0.1,0.11 -0.06,0 -0.1,-0.03 -0.1,-0.11l0 -0.9 -0.19 0zm1.29 1.16c-0.02,-0.04 -0.02,-0.08 -0.02,-0.14l0 -0.18c0,-0.12 -0.03,-0.21 -0.13,-0.25l0 -0c0.08,-0.04 0.12,-0.11 0.12,-0.23l0 -0.09c0,-0.18 -0.09,-0.27 -0.28,-0.27l-0.29 0 0 1.16 0.19 0 0 -0.47 0.07 0c0.09,0 0.12,0.04 0.12,0.15l0 0.18c0,0.09 0.01,0.11 0.02,0.14l0.19 0zm-0.31 -1c0.07,0 0.1,0.04 0.1,0.12l0 0.11c0,0.09 -0.04,0.12 -0.11,0.12l-0.07 0 0 -0.36 0.09 0z"/>
    <path class="fil3" d="M2.9 8.49c0,0.25 -0.13,0.38 -0.38,0.38l-0.53 0c-0.05,0 -0.08,-0.01 -0.1,-0.03 -0.01,-0.02 -0.02,-0.06 -0.02,-0.11l0 -0.13c0,-0.07 0.01,-0.12 0.04,-0.13 0.02,-0.01 0.04,-0.02 0.08,-0.02l0.37 0c0.06,0 0.1,-0.03 0.1,-0.09 0,-0.03 -0.01,-0.05 -0.02,-0.08l-0.4 -0.76c-0.11,-0.21 -0.16,-0.4 -0.16,-0.59 0,-0.16 0.04,-0.27 0.11,-0.34 0.07,-0.06 0.18,-0.09 0.33,-0.09l0.41 0c0.07,0 0.1,0.04 0.1,0.13l0 0.16c0,0.09 -0.04,0.14 -0.11,0.14l-0.32 0c-0.07,0 -0.11,0.03 -0.11,0.1 0,0.03 0.01,0.07 0.03,0.11l0.38 0.7c0.15,0.27 0.22,0.49 0.22,0.66zm1.24 -1.9l-0.35 2.19c-0.01,0.06 -0.04,0.1 -0.1,0.1l-0.38 0c-0.05,0 -0.09,-0.03 -0.1,-0.1l-0.35 -2.19c-0.01,-0.06 0.01,-0.1 0.06,-0.1l0.28 0c0.06,0 0.09,0.04 0.1,0.12l0.17 1.36c0,0.03 0.02,0.05 0.03,0.05 0.02,0 0.03,-0.02 0.03,-0.05l0.17 -1.36c0.01,-0.08 0.04,-0.12 0.1,-0.12l0.27 0c0.05,0 0.08,0.03 0.06,0.1zm1.07 1.9c0,0.25 -0.13,0.38 -0.38,0.38l-0.53 0c-0.05,0 -0.08,-0.01 -0.1,-0.03 -0.02,-0.02 -0.02,-0.06 -0.02,-0.11l0 -0.13c0,-0.07 0.01,-0.12 0.04,-0.13 0.02,-0.01 0.04,-0.02 0.08,-0.02l0.37 0c0.06,0 0.1,-0.03 0.1,-0.09 0,-0.03 -0.01,-0.05 -0.02,-0.08l-0.4 -0.76c-0.11,-0.21 -0.16,-0.4 -0.16,-0.59 0,-0.16 0.04,-0.27 0.11,-0.34 0.07,-0.06 0.18,-0.09 0.33,-0.09l0.41 0c0.07,0 0.1,0.04 0.1,0.13l0 0.16c0,0.09 -0.04,0.14 -0.11,0.14l-0.32 0c-0.07,0 -0.11,0.03 -0.11,0.1 0,0.03 0.01,0.07 0.03,0.11l0.38 0.7c0.15,0.27 0.22,0.49 0.22,0.66zm1.26 -0.81c0,0.36 -0.01,0.61 -0.03,0.77 -0.02,0.17 -0.07,0.29 -0.13,0.35 -0.06,0.05 -0.15,0.08 -0.28,0.08l-0.58 0c-0.06,0 -0.1,-0.01 -0.11,-0.05 -0.01,-0.02 -0.01,-0.06 -0.01,-0.11l0 -2.07c0,-0.11 0.04,-0.16 0.12,-0.16l0.61 0c0.19,0 0.31,0.09 0.36,0.27 0.04,0.14 0.07,0.45 0.07,0.92zm-0.43 0.04c0,-0.29 -0,-0.48 -0.01,-0.56 -0.01,-0.11 -0.02,-0.18 -0.05,-0.21 -0.02,-0.02 -0.07,-0.03 -0.14,-0.03 -0.05,0 -0.08,0.01 -0.1,0.02 -0.01,0.01 -0.02,0.04 -0.02,0.09l0 1.34c0,0.04 0.01,0.07 0.02,0.08 0.01,0.01 0.05,0.01 0.11,0.01 0.06,0 0.11,-0.01 0.13,-0.03 0.03,-0.03 0.04,-0.09 0.05,-0.19 0.01,-0.09 0.01,-0.26 0.01,-0.51z"/>
    <g>
     <polygon class="fil4" points="3.72,1.19 3.96,1.19 3.96,5.81 3.72,5.81 "/>
     <polygon class="fil5" points="3.66,1.43 4.03,1.43 4.03,5.54 3.66,5.54 "/>
     <polygon class="fil6" points="1.05,5.57 7.06,5.57 7.06,1.69 1.05,1.69 "/>
     <g style="clip-path:url(#id0)">
      <g>
       <path id="1" class="fil7" style="mask:url(#id1)" d="M4.05 1.71c1.65,0 2.99,0.86 2.99,1.92 0,1.06 -1.34,1.92 -2.99,1.92 -1.65,0 -2.99,-0.86 -2.99,-1.92 0,-1.06 1.34,-1.92 2.99,-1.92z"/>
      </g>
     </g>
     <polygon class="fil8" points="1.05,5.57 7.06,5.57 7.06,1.69 1.05,1.69 "/>
     <path class="fil5" d="M3.47 2.2c1.15,0 2.07,0.63 2.07,1.41 0,0.78 -0.93,1.41 -2.07,1.41 -1.15,0 -2.07,-0.63 -2.07,-1.41 0,-0.78 0.93,-1.41 2.07,-1.41z"/>
     <polygon class="fil9" points="1.54,4.85 5.29,4.85 5.29,2.4 1.54,2.4 "/>
     <g style="clip-path:url(#id3)">
      <g>
       <path id="1" class="fil7" style="mask:url(#id4)" d="M3.42 2.42c1.02,0 1.85,0.54 1.85,1.21 0,0.67 -0.83,1.21 -1.85,1.21 -1.02,0 -1.86,-0.54 -1.86,-1.21 0,-0.67 0.83,-1.21 1.86,-1.21z"/>
      </g>
     </g>
     <polygon class="fil8" points="1.54,4.85 5.29,4.85 5.29,2.4 1.54,2.4 "/>
     <path class="fil5" d="M3.79 2.69c0.73,0 1.32,0.4 1.32,0.89 0,0.49 -0.59,0.89 -1.32,0.89 -0.73,0 -1.32,-0.4 -1.32,-0.89 0,-0.49 0.59,-0.89 1.32,-0.89z"/>
     <polygon class="fil10" points="1.05,3.71 2.74,3.71 2.74,3.47 1.05,3.47 "/>
     <g style="clip-path:url(#id6)">
      <g>
       <polygon id="1" class="fil11" style="mask:url(#id7)" points="1.06,3.69 1.06,3.48 2.72,3.48 2.72,3.69 "/>
      </g>
     </g>
     <polygon class="fil8" points="1.05,3.71 2.74,3.71 2.74,3.47 1.05,3.47 "/>
     <polygon class="fil12" points="3.83,3.63 7.29,3.63 7.29,1.42 3.83,1.42 "/>
     <g style="clip-path:url(#id9)">
      <g>
       <path id="1" class="fil7" style="mask:url(#id10)" d="M3.86 3.61l-0.01 -2.18c0,0 0.01,0 0.01,0 1.85,0 3.37,0.94 3.42,2.12l-3.42 0.06z"/>
      </g>
     </g>
     <polygon class="fil8" points="3.83,3.63 7.29,3.63 7.29,1.42 3.83,1.42 "/>
     <path class="fil13" d="M3.85 3.62l0 0.67c-0,0 -0,0 -0,0 -0.53,0 -0.97,-0.29 -0.98,-0.65l0.98 -0.02z"/>
    </g>
   </g>
   <path class="fil14" d="M9.5 2.29c0.13,0.07 0.4,0.15 0.67,0.15 0.65,0 0.95,-0.34 0.95,-0.74 0,-0.33 -0.19,-0.55 -0.61,-0.71 -0.31,-0.12 -0.44,-0.18 -0.44,-0.33 0,-0.12 0.11,-0.23 0.35,-0.23 0.23,0 0.4,0.07 0.49,0.11l0.12 -0.43c-0.14,-0.07 -0.33,-0.12 -0.61,-0.12 -0.56,0 -0.9,0.31 -0.9,0.71 0,0.35 0.26,0.56 0.65,0.7 0.29,0.1 0.4,0.18 0.4,0.33 0,0.15 -0.13,0.26 -0.38,0.26 -0.23,0 -0.45,-0.07 -0.59,-0.15l-0.11 0.44zm2.96 0.11l0.23 -1.02c0.06,-0.24 0.1,-0.46 0.14,-0.73l0.01 0c0.03,0.27 0.07,0.49 0.11,0.73l0.2 1.02 0.58 0 0.61 -2.37 -0.55 0 -0.19 0.97c-0.05,0.29 -0.1,0.56 -0.14,0.83l-0.01 0c-0.04,-0.26 -0.07,-0.52 -0.13,-0.8l-0.19 -1 -0.57 0 -0.2 0.97c-0.06,0.3 -0.12,0.58 -0.15,0.84l-0.01 0c-0.04,-0.24 -0.09,-0.55 -0.14,-0.83l-0.18 -0.97 -0.57 0 0.56 2.37 0.59 0zm3.2 -0.61l0.18 0.61 0.58 0 -0.74 -2.37 -0.7 0 -0.72 2.37 0.55 0 0.17 -0.61 0.68 0zm-0.6 -0.4l0.14 -0.5c0.04,-0.14 0.07,-0.32 0.11,-0.46l0.01 0c0.04,0.14 0.08,0.32 0.12,0.46l0.15 0.5 -0.52 0zm3.72 1.01l0.52 0 -0.13 -2.37 -0.7 0 -0.25 0.79c-0.08,0.26 -0.16,0.58 -0.23,0.85l-0.01 0c-0.05,-0.28 -0.12,-0.57 -0.2,-0.85l-0.23 -0.79 -0.71 0 -0.15 2.37 0.5 0 0.05 -0.9c0.01,-0.3 0.03,-0.66 0.04,-0.98l0.01 0c0.06,0.31 0.14,0.65 0.21,0.93l0.25 0.92 0.42 0 0.29 -0.93c0.09,-0.28 0.19,-0.62 0.27,-0.92l0.01 0c0,0.35 0.01,0.69 0.02,0.97l0.04 0.91zm0.94 -2.37l0 2.37 0.54 0 0 -2.37 -0.54 0zm-8.94 5.51l0.8 -2.37 -0.57 0 -0.3 1.01c-0.08,0.27 -0.15,0.55 -0.21,0.84l-0.01 0c-0.06,-0.3 -0.13,-0.56 -0.21,-0.85l-0.29 -1 -0.59 0 0.76 2.37 0.63 0zm1.06 -2.37l0 2.37 0.53 0 0 -2.37 -0.53 0zm2.19 2.37l0.8 -2.37 -0.57 0 -0.3 1.01c-0.08,0.27 -0.16,0.55 -0.21,0.84l-0.01 0c-0.06,-0.3 -0.13,-0.56 -0.21,-0.85l-0.29 -1 -0.59 0 0.76 2.37 0.63 0zm2.46 -1.44l-0.87 0 0 -0.49 0.93 0 0 -0.44 -1.46 0 0 2.37 1.51 0 0 -0.44 -0.97 0 0 -0.56 0.87 0 0 -0.44zm0.47 1.44l0.53 0 0 -0.77 0.2 -0.25 0.58 1.02 0.62 0 -0.82 -1.36 0.78 -1.01 -0.66 0 -0.54 0.79c-0.06,0.08 -0.11,0.17 -0.17,0.26l-0.01 0 0 -1.05 -0.53 0 0 2.37zm3.44 -0.61l0.18 0.61 0.58 0 -0.74 -2.37 -0.7 0 -0.72 2.37 0.55 0 0.17 -0.61 0.68 0zm-0.6 -0.4l0.14 -0.5c0.04,-0.14 0.07,-0.32 0.11,-0.46l0.01 0c0.04,0.14 0.08,0.32 0.12,0.46l0.15 0.5 -0.52 0zm2.17 1.01l0 -0.71c0,-0.39 -0.01,-0.72 -0.02,-1.04l0.01 0c0.11,0.28 0.27,0.58 0.41,0.84l0.51 0.91 0.56 0 0 -2.37 -0.49 0 0 0.69c0,0.36 0.01,0.68 0.04,0.99l-0.01 0c-0.11,-0.27 -0.25,-0.56 -0.39,-0.81l-0.49 -0.87 -0.63 0 0 2.37 0.49 0zm3.17 -0.61l0.18 0.61 0.58 0 -0.74 -2.37 -0.7 0 -0.72 2.37 0.55 0 0.17 -0.61 0.68 0zm-0.6 -0.4l0.14 -0.5c0.04,-0.14 0.07,-0.32 0.11,-0.46l0.01 0c0.04,0.14 0.08,0.32 0.12,0.46l0.15 0.5 -0.52 0zm2.17 1.01l0 -0.71c0,-0.39 -0.01,-0.72 -0.02,-1.04l0.01 0c0.11,0.28 0.27,0.58 0.41,0.84l0.51 0.91 0.56 0 0 -2.37 -0.49 0 0 0.69c0,0.36 0.01,0.68 0.04,0.99l-0.01 0c-0.11,-0.27 -0.25,-0.56 -0.39,-0.81l-0.49 -0.87 -0.63 0 0 2.37 0.49 0zm1.94 -0.01c0.13,0.02 0.33,0.04 0.61,0.04 0.46,0 0.85,-0.1 1.1,-0.31 0.23,-0.19 0.39,-0.51 0.39,-0.96 0,-0.42 -0.16,-0.71 -0.4,-0.89 -0.23,-0.17 -0.52,-0.25 -0.97,-0.25 -0.27,0 -0.52,0.02 -0.72,0.05l0 2.33zm0.53 -1.95c0.05,-0.01 0.13,-0.02 0.24,-0.02 0.46,0 0.75,0.26 0.75,0.75 0,0.57 -0.32,0.83 -0.81,0.83 -0.06,0 -0.14,0 -0.19,-0.01l0 -1.55zm3.09 1.35l0.18 0.61 0.58 0 -0.74 -2.37 -0.7 0 -0.72 2.37 0.55 0 0.17 -0.61 0.68 0zm-0.6 -0.4l0.14 -0.5c0.04,-0.14 0.07,-0.32 0.11,-0.46l0.01 0c0.04,0.14 0.08,0.32 0.12,0.46l0.15 0.5 -0.52 0zm-22.16 4.03c0.13,0.07 0.4,0.15 0.67,0.15 0.65,0 0.95,-0.34 0.95,-0.74 0,-0.33 -0.19,-0.55 -0.61,-0.71 -0.31,-0.12 -0.44,-0.18 -0.44,-0.33 0,-0.12 0.11,-0.23 0.34,-0.23 0.23,0 0.4,0.07 0.49,0.11l0.12 -0.43c-0.14,-0.07 -0.33,-0.12 -0.61,-0.12 -0.56,0 -0.9,0.31 -0.9,0.71 0,0.34 0.26,0.56 0.65,0.7 0.29,0.1 0.4,0.18 0.4,0.33 0,0.15 -0.13,0.26 -0.38,0.26 -0.23,0 -0.45,-0.07 -0.59,-0.15l-0.11 0.44zm3.65 -0.37c-0.11,0.05 -0.29,0.08 -0.45,0.08 -0.47,0 -0.76,-0.3 -0.76,-0.77 0,-0.53 0.33,-0.78 0.75,-0.78 0.19,0 0.35,0.04 0.45,0.09l0.11 -0.42c-0.1,-0.05 -0.31,-0.11 -0.58,-0.11 -0.72,0 -1.3,0.45 -1.3,1.26 0,0.68 0.42,1.19 1.24,1.19 0.28,0 0.51,-0.06 0.6,-0.1l-0.08 -0.42zm0.44 -1.89l0 2.37 0.53 0 0 -0.99 0.88 0 0 0.99 0.53 0 0 -2.37 -0.53 0 0 0.91 -0.88 0 0 -0.91 -0.53 0zm3.47 -0.04c-0.7,0 -1.15,0.53 -1.15,1.24 0,0.68 0.41,1.21 1.12,1.21 0.7,0 1.17,-0.47 1.17,-1.25 0,-0.66 -0.4,-1.2 -1.13,-1.2zm-0.01 0.43c0.37,0 0.57,0.37 0.57,0.8 0,0.46 -0.21,0.81 -0.57,0.81 -0.36,0 -0.58,-0.33 -0.58,-0.8 0,-0.46 0.21,-0.81 0.58,-0.81zm2.53 -0.43c-0.7,0 -1.15,0.53 -1.15,1.24 0,0.68 0.42,1.21 1.12,1.21 0.7,0 1.17,-0.47 1.17,-1.25 0,-0.66 -0.4,-1.2 -1.13,-1.2zm-0.01 0.43c0.37,0 0.57,0.37 0.57,0.8 0,0.46 -0.21,0.81 -0.57,0.81 -0.36,0 -0.58,-0.33 -0.58,-0.8 0,-0.46 0.21,-0.81 0.58,-0.81zm1.49 1.99l1.48 0 0 -0.45 -0.94 0 0 -1.92 -0.54 0 0 2.37zm3.55 -2.41c-0.7,0 -1.15,0.53 -1.15,1.24 0,0.68 0.42,1.21 1.12,1.21 0.7,0 1.17,-0.47 1.17,-1.25 0,-0.66 -0.4,-1.2 -1.13,-1.2zm-0.01 0.43c0.37,0 0.57,0.37 0.57,0.8 0,0.46 -0.21,0.81 -0.57,0.81 -0.36,0 -0.58,-0.33 -0.58,-0.8 0,-0.46 0.21,-0.81 0.58,-0.81zm1.49 1.99l0.54 0 0 -0.95 0.85 0 0 -0.44 -0.85 0 0 -0.54 0.91 0 0 -0.44 -1.45 0 0 2.37zm-16.5 3.13c0.13,0.02 0.33,0.04 0.61,0.04 0.46,0 0.85,-0.1 1.1,-0.31 0.23,-0.19 0.39,-0.51 0.39,-0.96 0,-0.42 -0.16,-0.71 -0.4,-0.89 -0.23,-0.17 -0.52,-0.25 -0.97,-0.25 -0.27,0 -0.52,0.02 -0.72,0.05l0 2.33zm0.53 -1.95c0.05,-0.01 0.13,-0.02 0.24,-0.02 0.46,0 0.75,0.26 0.75,0.75 0,0.57 -0.32,0.83 -0.81,0.83 -0.06,0 -0.14,0 -0.19,-0.01l0 -1.55zm1.92 -0.42l0 2.37 0.54 0 0 -2.37 -0.54 0zm1 2.37l0.53 0 0 -0.85c0.05,0.01 0.11,0.01 0.18,0.01 0.32,0 0.59,-0.08 0.77,-0.25 0.14,-0.13 0.22,-0.33 0.22,-0.56 0,-0.23 -0.1,-0.43 -0.25,-0.55 -0.16,-0.13 -0.39,-0.19 -0.72,-0.19 -0.33,0 -0.56,0.02 -0.72,0.05l0 2.34zm0.53 -1.96c0.04,-0.01 0.11,-0.02 0.22,-0.02 0.27,0 0.42,0.13 0.42,0.35 0,0.24 -0.18,0.38 -0.46,0.38 -0.08,0 -0.13,-0 -0.18,-0.01l0 -0.7zm1.52 1.96l1.48 0 0 -0.45 -0.94 0 0 -1.92 -0.53 0 0 2.37zm2.71 -2.41c-0.7,0 -1.15,0.53 -1.15,1.24 0,0.68 0.42,1.21 1.12,1.21 0.7,0 1.17,-0.47 1.17,-1.25 0,-0.66 -0.4,-1.2 -1.13,-1.2zm-0.01 0.43c0.37,0 0.57,0.37 0.57,0.8 0,0.46 -0.21,0.81 -0.57,0.81 -0.36,0 -0.58,-0.33 -0.58,-0.8 0,-0.46 0.21,-0.81 0.58,-0.81zm3.53 1.99l0.52 0 -0.13 -2.37 -0.7 0 -0.25 0.79c-0.08,0.26 -0.16,0.58 -0.23,0.85l-0.01 0c-0.05,-0.28 -0.12,-0.57 -0.2,-0.85l-0.23 -0.79 -0.71 0 -0.15 2.37 0.5 0 0.05 -0.9c0.01,-0.3 0.03,-0.66 0.04,-0.98l0.01 0c0.06,0.31 0.14,0.65 0.21,0.93l0.25 0.92 0.42 0 0.29 -0.93c0.09,-0.28 0.19,-0.62 0.27,-0.92l0.01 0c0,0.35 0.01,0.69 0.02,0.97l0.04 0.91zm2.15 -0.61l0.18 0.61 0.58 0 -0.74 -2.37 -0.7 0 -0.72 2.37 0.55 0 0.17 -0.61 0.68 0zm-0.6 -0.4l0.14 -0.5c0.04,-0.14 0.07,-0.32 0.11,-0.46l0.01 0c0.04,0.14 0.08,0.32 0.12,0.46l0.15 0.5 -0.52 0z"/>
  </g>
 </g>
</svg>
